<?xml version="1.0" encoding="UTF-8" standalone="no"?>
<svg
   xmlns:dc="http://purl.org/dc/elements/1.1/"
   xmlns:cc="http://creativecommons.org/ns#"
   xmlns:rdf="http://www.w3.org/1999/02/22-rdf-syntax-ns#"
   xmlns:svg="http://www.w3.org/2000/svg"
   xmlns="http://www.w3.org/2000/svg"
   xmlns:sodipodi="http://sodipodi.sourceforge.net/DTD/sodipodi-0.dtd"
   xmlns:inkscape="http://www.inkscape.org/namespaces/inkscape"
   width="2048px"
   height="2048px"
   version="1.1"
   id="svg2985"
   inkscape:version="0.48.2 r9819"
   sodipodi:docname="permalink.svg">
  <metadata
     id="metadata2993">
    <rdf:RDF>
      <cc:Work
         rdf:about="">
        <dc:format>image/svg+xml</dc:format>
        <dc:type
           rdf:resource="http://purl.org/dc/dcmitype/StillImage" />
      </cc:Work>
    </rdf:RDF>
  </metadata>
  <defs
     id="defs2991" />
  <sodipodi:namedview
     pagecolor="#ffffff"
     bordercolor="#666666"
     borderopacity="1"
     objecttolerance="10"
     gridtolerance="10"
     guidetolerance="10"
     inkscape:pageopacity="0"
     inkscape:pageshadow="2"
     inkscape:window-width="640"
     inkscape:window-height="480"
     id="namedview2989"
     showgrid="false"
     inkscape:zoom="0.11523438"
     inkscape:cx="1024"
     inkscape:cy="1024"
     inkscape:window-x="0"
     inkscape:window-y="0"
     inkscape:window-maximized="0"
     inkscape:current-layer="svg2985" />
  <path
     d="m 7.4469158,1509.333 q 0,149.9717 106.2299342,253.7021 l 183.71528,182.4655 q 103.7304,103.7304 253.70207,103.7304 151.22143,0 254.95183,-106.2299 L 1063.4974,1684.3 q 103.7304,-103.7304 103.7304,-253.7021 0,-153.721 -109.9792,-261.2006 l 109.9792,-109.9792 q 107.4796,109.9792 259.9508,109.9792 149.9717,0 254.9519,-104.9802 l 259.9509,-259.95086 q 104.9801,-104.98017 104.9801,-254.95183 0,-149.97167 -106.2299,-253.70207 L 1757.1163,113.34681 Q 1653.3859,9.6164073 1503.4142,9.6164073 q -151.2214,0 -254.9518,106.2299327 L 991.01108,374.54747 q -103.7304,103.7304 -103.7304,253.70206 0,153.72096 109.97922,261.20065 L 887.28068,999.4294 Q 779.80099,889.45018 627.3298,889.45018 q -149.97167,0 -254.95184,104.98017 L 112.42708,1254.3812 Q 7.4469158,1359.3614 7.4469158,1509.333 z m 239.9546642,0 q 0,-49.9905 34.99338,-84.9839 l 259.95089,-259.9509 q 33.74363,-33.7436 84.98395,-33.7436 52.49008,0 89.98299,38.7427 -3.74929,3.7493 -23.74551,23.1206 -19.99622,19.3714 -26.86992,26.8699 -6.8737,7.4986 -18.74646,23.7456 -11.87276,16.2469 -16.24693,31.8689 -4.37417,15.6221 -4.37417,34.3685 0,49.9906 34.99338,84.984 34.99339,34.9933 84.98395,34.9933 18.74646,0 34.3685,-4.3741 15.62205,-4.3742 31.86898,-16.247 16.24693,-11.8727 23.74552,-18.7464 7.49858,-6.8737 26.86992,-26.8699 19.37134,-19.9963 23.12063,-23.7456 41.24221,38.7427 41.24221,91.2328 0,49.9906 -34.99339,84.9839 L 636.07814,1774.283 q -34.99339,34.9934 -84.98394,34.9934 -48.74079,0 -84.98395,-33.7437 L 282.39496,1593.0672 q -34.99338,-34.9934 -34.99338,-83.7342 z M 1125.9856,628.24953 q 0,-49.99055 34.9934,-84.98394 l 257.4513,-258.70112 q 33.7436,-33.74363 84.9839,-33.74363 49.9906,0 84.984,32.49386 l 183.7153,182.46553 q 34.9934,34.99339 34.9934,83.73418 0,49.99055 -34.9934,84.98394 l -259.9509,259.95089 q -34.9934,34.99339 -84.984,34.99339 -52.49,0 -89.983,-39.99245 3.7493,-3.74929 23.7456,-23.12063 19.9962,-19.37134 26.8699,-26.86992 6.8737,-7.49859 18.7464,-23.74552 11.8728,-16.24693 16.247,-31.86897 4.3741,-15.62205 4.3741,-34.36851 0,-49.99056 -34.9933,-84.98394 -34.9934,-34.99339 -84.984,-34.99339 -18.7465,0 -34.3685,4.37417 -15.622,4.37417 -31.8689,16.24693 -16.247,11.87276 -23.7456,18.74646 -7.4985,6.8737 -26.8699,26.86992 -19.3713,19.99622 -23.1206,23.74552 -41.2422,-38.74268 -41.2422,-91.23277 z"
     id="path2987"
     inkscape:connector-curvature="0"
     style="fill:#ff583d;stroke:#ff583d;stroke-width:1.24976385" />
</svg>
